<svg xmlns="http://www.w3.org/2000/svg" width="208.056" height="66.896">
  <g fill="#1a1311">
    <path d="M.667 3.249v.354a4.169 4.169 0 011.886-.477 2.932 2.932 0 012.213.919 3.463 3.463 0 01-.027 4.64 2.939 2.939 0 01-2.213.95 4.181 4.181 0 01-1.859-.47v3.554H.001v-9.47zm0 .994v4.269a3.538 3.538 0 001.73.47 2.43 2.43 0 001.817-.708 2.539 2.539 0 00.695-1.859 2.58 2.58 0 00-.735-1.889 2.5 2.5 0 00-1.859-.746 3.419 3.419 0 00-1.648.461zM9.184 0v4.337h.027a2.367 2.367 0 012.063-1.212 2.2 2.2 0 011.7.681 2.64 2.64 0 01.634 1.872V9.51h-.668V5.944q0-2.165-1.7-2.166A2.4 2.4 0 009.191 5.12v4.39h-.668V0zM17.529 0v1.143h-.674V0zm0 3.247V9.51h-.674V3.247zM21.51 0v9.51h-.674V0zM27.656 3.124a3.04 3.04 0 012.271.933 3.424 3.424 0 010 4.647 3.248 3.248 0 01-4.548 0 3.4 3.4 0 010-4.647 3.06 3.06 0 012.277-.933zm0 5.856a2.343 2.343 0 001.764-.738 2.786 2.786 0 000-3.714 2.333 2.333 0 00-1.76-.749 2.359 2.359 0 00-1.773.743 2.79 2.79 0 000 3.721 2.362 2.362 0 001.769.737zM37.032 3.656v.722a3.18 3.18 0 00-1.716-.64 1.5 1.5 0 00-.953.305.927.927 0 00-.389.754.873.873 0 00.236.587 3.93 3.93 0 001.3.68 3.17 3.17 0 011.392.853 1.623 1.623 0 01.327.987 1.551 1.551 0 01-.593 1.229 2.19 2.19 0 01-1.464.5 3.568 3.568 0 01-1.879-.572v-.654a4.409 4.409 0 001.968.572 1.446 1.446 0 00.95-.306.972.972 0 00.371-.783.9.9 0 00-.242-.6 3.975 3.975 0 00-1.307-.7 3.369 3.369 0 01-1.382-.835 1.467 1.467 0 01-.316-.916 1.538 1.538 0 01.589-1.215 2.136 2.136 0 011.433-.5 3.359 3.359 0 011.675.532zM42.822 3.124a3.039 3.039 0 012.27.933 3.424 3.424 0 010 4.647 3.248 3.248 0 01-4.548 0 3.407 3.407 0 010-4.647 3.063 3.063 0 012.278-.933zm0 5.856a2.343 2.343 0 001.763-.738 2.783 2.783 0 000-3.714 2.329 2.329 0 00-1.76-.749 2.358 2.358 0 00-1.773.743 2.787 2.787 0 000 3.721 2.36 2.36 0 001.77.737zM49.568 3.249v.354a4.166 4.166 0 011.886-.477 2.933 2.933 0 012.213.919 3.464 3.464 0 01-.028 4.64 2.938 2.938 0 01-2.213.95 4.178 4.178 0 01-1.858-.47v3.554H48.9v-9.47zm0 .994v4.269a3.532 3.532 0 001.729.47 2.431 2.431 0 001.818-.708 2.543 2.543 0 00.695-1.859 2.581 2.581 0 00-.736-1.889 2.5 2.5 0 00-1.859-.746 3.414 3.414 0 00-1.647.461zM58.083 0v4.337h.027a2.365 2.365 0 012.063-1.212 2.2 2.2 0 011.7.681 2.64 2.64 0 01.634 1.872V9.51h-.673V5.944q0-2.165-1.7-2.166a2.4 2.4 0 00-2.049 1.342v4.39h-.668V0zM70.419 3.247l-4.689 9.47h-.683l2.19-4.424-2.64-5.047h.7l2.272 4.373 2.166-4.373zM78.641 0v1.143h-.674V0zm0 3.247V9.51h-.674V3.247zM85.277 3.656v.722a3.183 3.183 0 00-1.716-.64 1.5 1.5 0 00-.953.305.926.926 0 00-.388.754.872.872 0 00.235.587 3.938 3.938 0 001.3.68 3.171 3.171 0 011.391.853 1.623 1.623 0 01.327.987 1.55 1.55 0 01-.592 1.229 2.191 2.191 0 01-1.464.5 3.566 3.566 0 01-1.879-.572v-.654a4.4 4.4 0 001.967.572 1.444 1.444 0 00.95-.306.97.97 0 00.371-.783.9.9 0 00-.241-.6 4 4 0 00-1.307-.7 3.362 3.362 0 01-1.382-.835 1.468 1.468 0 01-.317-.916 1.541 1.541 0 01.589-1.215 2.138 2.138 0 011.434-.5 3.359 3.359 0 011.675.532zM94.096 0v4.337h.027a2.367 2.367 0 012.063-1.212 2.2 2.2 0 011.7.681 2.64 2.64 0 01.634 1.872V9.51h-.668V5.944q0-2.165-1.7-2.166a2.4 2.4 0 00-2.049 1.342v4.39h-.679V0zM104.554 3.124a3.038 3.038 0 012.27.933 3.424 3.424 0 010 4.647 3.247 3.247 0 01-4.547 0 3.4 3.4 0 010-4.647 3.06 3.06 0 012.277-.933zm0 5.856a2.343 2.343 0 001.763-.738 2.783 2.783 0 000-3.714 2.329 2.329 0 00-1.76-.749 2.358 2.358 0 00-1.773.743 2.787 2.787 0 000 3.721 2.36 2.36 0 001.77.737zM111.281 3.249v1.089h.028a2.365 2.365 0 012.063-1.212 2.2 2.2 0 011.7.681 2.66 2.66 0 01.634 1.886v3.82h-.668v-3.57q0-2.165-1.7-2.166a2.36 2.36 0 00-2.05 1.342V9.51h-.667V3.249zM124.216 6.149h-4.936a2.737 2.737 0 00-.02.327 2.384 2.384 0 00.749 1.777 2.452 2.452 0 001.77.729 3.647 3.647 0 002.329-.932v.756a3.842 3.842 0 01-2.41.831 2.946 2.946 0 01-2.241-.939 3.35 3.35 0 01-.885-2.39 3.263 3.263 0 01.817-2.277 2.789 2.789 0 014.024-.089 3.007 3.007 0 01.803 2.207zm-4.847-.538h4.058q-.353-1.831-1.981-1.832a1.985 1.985 0 00-1.332.48 2.352 2.352 0 00-.747 1.35zM130.401 3.656v.722a3.183 3.183 0 00-1.716-.64 1.5 1.5 0 00-.953.305.928.928 0 00-.388.754.869.869 0 00.236.587 3.92 3.92 0 001.3.68 3.171 3.171 0 011.391.853 1.623 1.623 0 01.327.987 1.55 1.55 0 01-.592 1.229 2.19 2.19 0 01-1.464.5 3.568 3.568 0 01-1.879-.572v-.654a4.4 4.4 0 001.968.572 1.447 1.447 0 00.95-.306.969.969 0 00.37-.783.894.894 0 00-.241-.6 4 4 0 00-1.307-.7 3.369 3.369 0 01-1.382-.835 1.467 1.467 0 01-.316-.916 1.538 1.538 0 01.589-1.215 2.137 2.137 0 011.433-.5 3.356 3.356 0 011.674.532zM134.909 1.17v2.077h1.756v.545h-1.756v3.725a3.018 3.018 0 00.146 1.181q.146.282.786.282a2.774 2.774 0 001.144-.306v.64a2.951 2.951 0 01-1.294.32 1.542 1.542 0 01-1.034-.354 1.219 1.219 0 01-.416-.98V3.791h-1.687v-.544h1.688V1.756l.457-.586zM144.672 3.247l-4.688 9.47h-.684l2.191-4.424-2.641-5.047h.7l2.272 4.373 2.166-4.373z"/>
    <g>
      <path d="M39.708 23.713v6.52H24.376v36.663H16.03V30.233H.698v-6.52zM56.196 23.713v14.689h22.412V23.713h8.346v43.185h-8.346V45.171H56.196v21.724h-8.351V23.713zM102.003 24.672a4.328 4.328 0 014.3 4.3 4.245 4.245 0 01-1.251 3.014 4.15 4.15 0 01-6.06 0 4.192 4.192 0 01-1.282-3.014 4.073 4.073 0 011.3-3.045 4.19 4.19 0 012.993-1.255zm3.8 13.354v28.872h-7.6V38.024zM124.38 23.713l25.659 30.137V23.713h8.161v43.185h-7.172l-25.813-30.637v30.634h-8.161V23.713zM177.792 23.713v19.936h.186l15.827-19.936h9.49l-16.074 20.34 20.835 22.844h-10.7L177.792 45.69v21.206h-8.346V23.713z"/>
    </g>
  </g>
</svg>
