<svg xmlns="http://www.w3.org/2000/svg" width="170.951" height="54.965">
  <g fill="#fff">
    <path d="M.548 2.668v.291a3.425 3.425 0 011.553-.392 2.409 2.409 0 011.818.755 2.845 2.845 0 01-.022 3.812 2.415 2.415 0 01-1.818.781 3.436 3.436 0 01-1.527-.386v2.92H.001V2.668zm0 .817v3.507a2.907 2.907 0 001.421.386 2 2 0 001.493-.581 2.086 2.086 0 00.571-1.527 2.12 2.12 0 00-.6-1.552 2.058 2.058 0 00-1.527-.613 2.81 2.81 0 00-1.358.38zM7.545 0v3.563h.022a1.945 1.945 0 011.695-1 1.809 1.809 0 011.393.56 2.169 2.169 0 01.521 1.538v3.15h-.55V4.884q0-1.779-1.4-1.779A1.973 1.973 0 007.545 4.21v3.608h-.549V0zM14.403 0v.939h-.554V0zm0 2.668v5.147h-.554V2.668zM17.674 0v7.815h-.554V0zM22.725 2.567a2.5 2.5 0 011.866.767 2.813 2.813 0 010 3.818 2.669 2.669 0 01-3.737 0 2.8 2.8 0 010-3.818 2.514 2.514 0 011.871-.767zm0 4.811a1.925 1.925 0 001.449-.607 2.289 2.289 0 000-3.052 1.917 1.917 0 00-1.446-.616 1.938 1.938 0 00-1.457.61 2.292 2.292 0 000 3.058 1.94 1.94 0 001.454.607zM30.427 3.004v.588a2.613 2.613 0 00-1.41-.526 1.229 1.229 0 00-.783.251.762.762 0 00-.319.619.717.717 0 00.194.483 3.229 3.229 0 001.068.559 2.6 2.6 0 011.144.7 1.333 1.333 0 01.269.811 1.274 1.274 0 01-.487 1.01 1.8 1.8 0 01-1.2.411 2.932 2.932 0 01-1.544-.47v-.537a3.623 3.623 0 001.617.47 1.188 1.188 0 00.781-.251.8.8 0 00.305-.643.735.735 0 00-.2-.495 3.266 3.266 0 00-1.074-.574 2.768 2.768 0 01-1.136-.686 1.205 1.205 0 01-.26-.753 1.264 1.264 0 01.484-1 1.755 1.755 0 011.177-.412 2.76 2.76 0 011.374.445zM35.19 2.567a2.5 2.5 0 011.865.767 2.813 2.813 0 010 3.818 2.669 2.669 0 01-3.737 0 2.8 2.8 0 010-3.818 2.517 2.517 0 011.872-.767zm0 4.811a1.925 1.925 0 001.449-.607 2.287 2.287 0 000-3.052 1.914 1.914 0 00-1.449-.615 1.937 1.937 0 00-1.457.61 2.29 2.29 0 000 3.058 1.939 1.939 0 001.457.606zM40.728 2.668v.291a3.423 3.423 0 011.55-.392 2.41 2.41 0 011.818.755 2.846 2.846 0 01-.023 3.812 2.414 2.414 0 01-1.818.781 3.433 3.433 0 01-1.527-.386v2.92h-.549V2.668zm0 .817v3.507a2.9 2.9 0 001.421.386 2 2 0 001.494-.581 2.089 2.089 0 00.571-1.527 2.121 2.121 0 00-.6-1.552 2.056 2.056 0 00-1.527-.613 2.8 2.8 0 00-1.359.38zM47.724 0v3.563h.022a1.943 1.943 0 011.695-1 1.811 1.811 0 011.393.56 2.169 2.169 0 01.521 1.538v3.15h-.549V4.884q0-1.779-1.4-1.779a1.972 1.972 0 00-1.683 1.1v3.608h-.548V0zM57.86 2.668l-3.852 7.784h-.561l1.8-3.635-2.169-4.147h.576l1.867 3.593L57.3 2.67zM64.616 0v.939h-.554V0zm0 2.668v5.147h-.554V2.668zM70.066 3.004v.588a2.615 2.615 0 00-1.41-.526 1.229 1.229 0 00-.783.251.761.761 0 00-.319.619.717.717 0 00.193.483 3.235 3.235 0 001.069.559 2.605 2.605 0 011.143.7 1.334 1.334 0 01.269.811 1.273 1.273 0 01-.486 1.01 1.8 1.8 0 01-1.2.411 2.93 2.93 0 01-1.544-.47v-.537a3.618 3.618 0 001.616.47 1.186 1.186 0 00.78-.251.8.8 0 00.305-.643.738.738 0 00-.2-.495 3.283 3.283 0 00-1.074-.574 2.762 2.762 0 01-1.136-.686 1.206 1.206 0 01-.261-.753 1.266 1.266 0 01.484-1 1.757 1.757 0 011.178-.412 2.76 2.76 0 011.376.445zM77.313 0v3.563h.022a1.945 1.945 0 011.695-1 1.809 1.809 0 011.393.56 2.169 2.169 0 01.521 1.538v3.15h-.549V4.884q0-1.779-1.4-1.779a1.973 1.973 0 00-1.683 1.1v3.608h-.551V0zM85.904 2.567a2.5 2.5 0 011.865.767 2.813 2.813 0 010 3.818 2.668 2.668 0 01-3.736 0 2.8 2.8 0 010-3.818 2.514 2.514 0 011.871-.767zm0 4.811a1.925 1.925 0 001.449-.607 2.287 2.287 0 000-3.052 1.914 1.914 0 00-1.446-.616 1.937 1.937 0 00-1.457.61 2.29 2.29 0 000 3.058 1.939 1.939 0 001.454.607zM91.435 2.668v.9h.023a1.943 1.943 0 011.695-1 1.811 1.811 0 011.393.56 2.186 2.186 0 01.521 1.55v3.139h-.548V4.883q0-1.779-1.4-1.779a1.939 1.939 0 00-1.684 1.1v3.608h-.548V2.668zM102.061 5.051h-4.056a2.252 2.252 0 00-.016.269 1.959 1.959 0 00.615 1.46 2.014 2.014 0 001.454.6 3 3 0 001.913-.766v.621a3.157 3.157 0 01-1.98.682 2.421 2.421 0 01-1.841-.772 2.753 2.753 0 01-.727-1.963 2.681 2.681 0 01.671-1.871 2.292 2.292 0 013.306-.073 2.471 2.471 0 01.661 1.813zm-3.983-.442h3.334q-.29-1.5-1.628-1.505a1.631 1.631 0 00-1.094.395 1.932 1.932 0 00-.612 1.11zM107.144 3.004v.588a2.615 2.615 0 00-1.41-.526 1.231 1.231 0 00-.783.251.763.763 0 00-.319.619.714.714 0 00.194.483 3.221 3.221 0 001.068.559 2.606 2.606 0 011.143.7 1.334 1.334 0 01.268.811 1.273 1.273 0 01-.486 1.01 1.8 1.8 0 01-1.2.411 2.932 2.932 0 01-1.544-.47v-.537a3.618 3.618 0 001.617.47 1.189 1.189 0 00.781-.251.8.8 0 00.3-.643.735.735 0 00-.2-.495 3.283 3.283 0 00-1.074-.574 2.768 2.768 0 01-1.136-.686 1.205 1.205 0 01-.26-.753 1.264 1.264 0 01.484-1 1.756 1.756 0 011.177-.412 2.758 2.758 0 011.38.445zM110.848.962v1.706h1.443v.448h-1.443v3.06a2.48 2.48 0 00.12.97q.12.232.646.232a2.279 2.279 0 00.94-.251v.526a2.424 2.424 0 01-1.063.263 1.267 1.267 0 01-.85-.291 1 1 0 01-.342-.806v-3.7h-1.385v-.448h1.387V1.443l.375-.481zM118.87 2.668l-3.851 7.784h-.562l1.8-3.635-2.17-4.147h.576l1.867 3.593 1.779-3.593z"/>
    <g>
      <path d="M32.627 19.485v5.359h-12.6v30.124h-6.853V24.842H.574v-5.357zM46.174 19.485v12.069h18.415V19.485h6.858v35.483h-6.858V37.116H46.174v17.85h-6.863V19.485zM83.812 20.273a3.556 3.556 0 013.531 3.53 3.488 3.488 0 01-1.028 2.476 3.41 3.41 0 01-4.98 0 3.444 3.444 0 01-1.053-2.476 3.347 3.347 0 011.067-2.5 3.443 3.443 0 012.463-1.03zm3.124 10.972v23.723h-6.248V31.243zM102.198 19.485l21.082 24.764V19.485h6.706v35.483h-5.893l-21.209-25.173v25.171h-6.705V19.485zM146.085 19.485v16.38h.152l13-16.382h7.8l-13.205 16.713 17.119 18.77h-8.788l-16.078-17.424v17.424h-6.858V19.485z"/>
    </g>
  </g>
</svg>
